<svg xmlns="http://www.w3.org/2000/svg" viewBox="0 0 800 320" width="800" height="320" role="img" aria-label="A robot arm picks up a flat sign, lifts it, turns to face the viewer, and shows the words: Hi, how are you?">
<style>
.j{animation-duration:6.5s;animation-iteration-count:infinite;animation-timing-function:cubic-bezier(.45,0,.2,1)}
.s{animation-name:sh}.e{animation-name:el}.w{animation-name:wr}.jaw{animation-name:jw}.gc{animation-name:gc}
.side{animation:side 6.5s infinite linear}.front{animation:front 6.5s infinite linear}
.c0{animation:c0 6.5s infinite linear}.c1{animation:c1 6.5s infinite linear}.c2{animation:c2 6.5s infinite linear}.tx{animation:tx 6.5s infinite linear}
@keyframes sh{0%{transform:rotate(-105deg)}10%{transform:rotate(-22.62deg)}16%{transform:rotate(-16.98deg)}20%{transform:rotate(-16.98deg)}28%{transform:rotate(-36.12deg)}36%{transform:rotate(-59.01deg)}46%{transform:rotate(-59.01deg)}68%{transform:rotate(-59.01deg)}78%{transform:rotate(-59.01deg)}84%{transform:rotate(-36.12deg)}90%{transform:rotate(-16.98deg)}93%{transform:rotate(-16.98deg)}96%{transform:rotate(-22.62deg)}100%{transform:rotate(-105deg)}}@keyframes el{0%{transform:rotate(125deg)}10%{transform:rotate(22.62deg)}16%{transform:rotate(32.42deg)}20%{transform:rotate(32.42deg)}28%{transform:rotate(36.9deg)}36%{transform:rotate(69.31deg)}46%{transform:rotate(69.31deg)}68%{transform:rotate(69.31deg)}78%{transform:rotate(69.31deg)}84%{transform:rotate(36.9deg)}90%{transform:rotate(32.42deg)}93%{transform:rotate(32.42deg)}96%{transform:rotate(22.62deg)}100%{transform:rotate(125deg)}}@keyframes wr{0%{transform:rotate(70deg)}10%{transform:rotate(90deg)}16%{transform:rotate(74.55deg)}20%{transform:rotate(74.55deg)}28%{transform:rotate(89.22deg)}36%{transform:rotate(-10.29deg)}46%{transform:rotate(-10.29deg)}68%{transform:rotate(-10.29deg)}78%{transform:rotate(-10.29deg)}84%{transform:rotate(89.22deg)}90%{transform:rotate(74.55deg)}93%{transform:rotate(74.55deg)}96%{transform:rotate(90deg)}100%{transform:rotate(70deg)}}
@keyframes jw{0%,16%{transform:rotate(38deg)}20%,90%{transform:rotate(0deg)}93%,100%{transform:rotate(38deg)}}
@keyframes gc{0%,36%{transform:translate(462px,110px) scale(0.1875,1)}46%,68%{transform:translate(292px,118px) scale(1,1)}78%,100%{transform:translate(462px,110px) scale(0.1875,1)}}
@keyframes side{0%,36%{opacity:1}46%,68%{opacity:0}78%,100%{opacity:1}}
@keyframes front{0%,36%{opacity:0}46%,68%{opacity:1}78%,100%{opacity:0}}
@keyframes c0{0%,19.9%{opacity:1}20%,92.9%{opacity:0}93%,100%{opacity:1}}
@keyframes c1{0%,19.9%{opacity:0}20%,37%{opacity:1}38%,77%{opacity:0}78%,90%{opacity:1}90.1%,100%{opacity:0}}
@keyframes c2{0%,36%{opacity:0}38%,77%{opacity:1}78%,100%{opacity:0}}
@keyframes tx{0%,44%{opacity:0}48%,66%{opacity:1}70%,100%{opacity:0}}
.k{fill:#111;stroke:#fff;stroke-width:2.5;stroke-linejoin:round}.d{fill:#fff}
.t{font:700 16px -apple-system,BlinkMacSystemFont,"Helvetica Neue",Arial,sans-serif;fill:#fff;text-anchor:middle}
@media (prefers-reduced-motion:reduce){
.j,.side,.front,.c0,.c1,.c2,.tx{animation:none}
.side{opacity:0}.front,.c2,.tx{opacity:1}.c0,.c1{opacity:0}
.gc{transform:translate(292px,118px) scale(1,1)}
}
</style>
<rect x="1.25" y="1.25" width="797.5" height="317.5" rx="12" fill="#111" stroke="#4a4a4a" stroke-width="1.5"/>
<rect x="8" y="262" width="784" height="49" rx="0" fill="#1a1a1a"/>
<line x1="8" y1="262" x2="792" y2="262" stroke="#555" stroke-width="2"/>
<rect class="k c0" x="413.0" y="250.0" width="84" height="12" rx="2"/>
<rect class="k" x="130" y="240" width="170" height="22" rx="4"/>
<rect class="k" x="196" y="206" width="38" height="40" rx="4"/>
<circle class="d" cx="150" cy="251" r="2"/><circle class="d" cx="280" cy="251" r="2"/>
<g transform="translate(215,200)">
  <g class="side"><g class="j s">
    <path class="k" d="M0,-13 L130,-8 L130,8 L0,13 Z"/>
    <g transform="translate(130,0)"><g class="j e">
      <path class="k" d="M0,-10 L120,-7 L120,7 L0,10 Z"/>
      <rect class="k" x="-14" y="-15" width="30" height="30" rx="4"/><circle class="d" r="3"/>
      <rect class="k" x="94" y="-14" width="30" height="28" rx="4"/>
      <g transform="translate(120,0)"><g class="j w">
        <rect class="k" x="-4" y="-22" width="30" height="44" rx="4"/><circle class="d" r="3"/>
        <rect class="k" x="16" y="-54" width="14" height="76" rx="3"/>
        <path class="k" d="M22,-52 L68,-50 L68,-44 L22,-44 Z"/>
        <rect class="d" x="58" y="-47" width="10" height="3"/>
        <rect class="k" x="8" y="18" width="26" height="24" rx="3"/>
        <g transform="translate(24,30)"><g class="j jaw">
          <path class="k" d="M0,-6 L44,4 L44,15 L0,6 Z"/>
          <rect class="d" x="34" y="12" width="10" height="3"/>
          <circle class="d" r="2.5"/>
        </g></g>
        <rect class="k c1" x="56.0" y="-42.0" width="12" height="84" rx="2"/>
      </g></g>
    </g></g>
  </g></g>
  <rect class="k" x="-18" y="-18" width="42" height="36" rx="4"/><circle class="d" r="3"/>
</g>
<g class="front">
  <g transform="translate(215,200) rotate(-46.8)">
    <path class="k" d="M0,-16 L64.5,-12 L64.5,12 L0,16 Z"/>
    <rect class="k" x="36.25" y="-16" width="32" height="32" rx="4"/><circle class="d" cx="52.25" cy="0" r="3"/>
    <rect class="k" x="58.5" y="-20" width="40" height="40" rx="4"/><circle class="d" cx="78.5" cy="0" r="3"/>
  </g>
  <rect class="k" x="245.0" y="80" width="10" height="76" rx="3"/>
  <rect class="k" x="329.0" y="80" width="10" height="76" rx="3"/>
  <rect class="d" x="248.0" y="82" width="4" height="8"/>
  <rect class="d" x="332.0" y="82" width="4" height="8"/>
</g>
<g class="c2"><g class="j gc">
  <rect class="k" x="-32.0" y="-42.0" width="64" height="84" rx="2" vector-effect="non-scaling-stroke"/>
  <g class="tx"><text class="t" y="-5">Hi, how</text><text class="t" y="16">are you?</text></g>
</g></g>
</svg>
